name C:\Users\u0101727\Documents\MyRepositories\upper-imu-dc\Results\main_tracking\Case_50\kinematics.mot
datacolumns 10
datarows 33
range 3.25000000 3.57000000
endheader 
time	clav_prot	clav_elev	scapula_abduction	scapula_elevation	scapula_upward_rot	scapula_winging	plane_elv	shoulder_elv	axial_rot	
          3.25000000	        -44.75215678	          8.31882716	         -2.33073425	         -2.56929920	         80.51082654	        -12.40890880	         27.64600298	         87.49727389	         -4.20855049	
          3.26000000	        -44.74688284	          8.30373311	         -2.28458929	         -2.57459483	         80.55449755	        -12.39474969	         27.81277130	         87.45948604	         -4.19387288	
          3.27000000	        -44.74096548	          8.29073824	         -2.23924396	         -2.57858558	         80.59642603	        -12.38102041	         27.97514148	         87.42272329	         -4.18278359	
          3.28000000	        -44.73422972	          8.27981214	         -2.19449886	         -2.58129277	         80.63647638	        -12.36762215	         28.13341666	         87.38743874	         -4.17531184	
          3.29000000	        -44.72650653	          8.27090616	         -2.15017538	         -2.58275279	         80.67449285	        -12.35445756	         28.28789935	         87.35405750	         -4.17137842	
          3.30000000	        -44.71763540	          8.26395410	         -2.10611254	         -2.58301577	         80.71030942	        -12.34143117	         28.43888842	         87.32296251	         -4.17079595	
          3.31000000	        -44.70746608	          8.25887334	         -2.06216253	         -2.58214390	         80.74375993	        -12.32844945	         28.58667605	         87.29448275	         -4.17327158	
          3.32000000	        -44.69585966	          8.25556646	         -2.01818562	         -2.58020941	         80.77468759	        -12.31542051	         28.73154543	         87.26888536	         -4.17841227	
          3.33000000	        -44.68268899	          8.25392289	         -1.97404529	         -2.57729260	         80.80295286	        -12.30225380	         28.87376881	         87.24637242	         -4.18573297	
          3.34000000	        -44.66783869	          8.25382063	         -1.92960360	         -2.57348000	         80.82844015	        -12.28885958	         29.01360550	         87.22708231	         -4.19466791	
          3.35000000	        -44.65120482	          8.25512861	         -1.88471703	         -2.56886207	         80.85106323	        -12.27514869	         29.15129920	         87.21109499	         -4.20458560	
          3.36000000	        -44.63269459	          8.25771063	         -1.83923337	         -2.56352998	         80.87077001	        -12.26103272	         29.28707414	         87.19843970	         -4.21480735	
          3.37000000	        -44.61222614	          8.26143083	         -1.79298974	         -2.55757147	         80.88754647	        -12.24642499	         29.42113019	         87.18910374	         -4.22462898	
          3.38000000	        -44.58972860	          8.26615978	         -1.74581196	         -2.55106636	         80.90141944	        -12.23124186	         29.55363758	         87.18304142	         -4.23334427	
          3.39000000	        -44.56514248	          8.27178006	         -1.69751552	         -2.54408261	         80.91245814	        -12.21540439	         29.68473203	         87.18018225	         -4.24026864	
          3.40000000	        -44.53842096	          8.27819043	         -1.64790844	         -2.53667361	         80.92077443	        -12.19884029	         29.81451118	         87.18043759	         -4.24476139	
          3.41000000	        -44.50953215	          8.28530837	         -1.59679645	         -2.52887667	         80.92652183	        -12.18148625	         29.94303305	         87.18370550	         -4.24624549	
          3.42000000	        -44.47846266	          8.29307113	         -1.54399055	         -2.52071285	         80.92989382	        -12.16329071	         30.07031682	         87.18987335	         -4.24422462	
          3.43000000	        -44.44522209	          8.30143553	         -1.48931615	         -2.51218767	         80.93112147	        -12.14421694	         30.19634526	         87.19881858	         -4.23829799	
          3.44000000	        -44.40984759	          8.31037607	         -1.43262242	         -2.50329313	         80.93047076	        -12.12424579	         30.32106780	         87.21040803	         -4.22817352	
          3.45000000	        -44.37240776	          8.31988036	         -1.37379025	         -2.49401148	         80.92823911	        -12.10337716	         30.44440282	         87.22449729	         -4.21367870	
          3.46000000	        -44.33300515	          8.32994107	         -1.31273848	         -2.48432147	         80.92475020	        -12.08163000	         30.56623852	         87.24093147	         -4.19476768	
          3.47000000	        -44.29177793	          8.34054462	         -1.24942980	         -2.47420701	         80.92034635	        -12.05904116	         30.68643321	         87.25954828	         -4.17152232	
          3.48000000	        -44.24890155	          8.35165801	         -1.18387844	         -2.46366741	         80.91537791	        -12.03566408	         30.80481583	         87.28018307	         -4.14414626	
          3.49000000	        -44.20459109	          8.36321534	         -1.11616075	         -2.45272807	         80.91019043	        -12.01156833	         30.92118799	         87.30267461	         -4.11295283	
          3.50000000	        -44.15910464	          8.37510626	         -1.04642862	         -2.44145009	         80.90511112	        -11.98684039	         31.03532756	         87.32686990	         -4.07834833	
          3.51000000	        -44.11274716	          8.38716795	         -0.97492344	         -2.42993734	         80.90043692	        -11.96158554	         31.14699280	         87.35262638	         -4.04081351	
          3.52000000	        -44.06587386	          8.39918211	         -0.90198749	         -2.41833963	         80.89642649	        -11.93593026	         31.25592557	         87.37981071	         -4.00088566	
          3.53000000	        -44.01889138	          8.41087759	         -0.82806901	         -2.40685133	         80.89329756	        -11.91002399	         31.36185178	         87.40829435	         -3.95914326	
          3.54000000	        -43.97225513	          8.42193834	         -0.75371773	         -2.39570549	         80.89123000	        -11.88403911	         31.46447819	         87.43794731	         -3.91619410	
          3.55000000	        -43.92646130	          8.43201553	         -0.67956887	         -2.38516417	         80.89037328	        -11.85816798	         31.56348564	         87.46863221	         -3.87266653	
          3.56000000	        -43.88203304	          8.44074195	         -0.60631577	         -2.37550646	         80.89085681	        -11.83261661	         31.65852027	         87.50020045	         -3.82920281	
          3.57000000	        -43.83950179	          8.44774804	         -0.53467380	         -2.36701483	         80.89280109	        -11.80759555	         31.74918438	         87.53249170	         -3.78645338	
